<svg class="rendered-elevation" xmlns="http://www.w3.org/2000/svg" width="916" height="626" viewBox="0 0 916 626"><defs><pattern id="ke_4fc091ac36e4_clad-primary" patternUnits="userSpaceOnUse" width="56" height="28"><rect width="56" height="28" fill="#b7b0a0"/><path d="M0 0H56M0 14H56M0 28H56M22 0V14M44 0V14M10 14V28M37 14V28" stroke="#e0dcd0" stroke-width="1.2"/><path d="M1 2H20V12H1Z M12 16H35V26H12Z" fill="#a29c8e" opacity=".45"/></pattern><pattern id="ke_4fc091ac36e4_clad-accent" patternUnits="userSpaceOnUse" width="10" height="10"><rect width="10" height="10" fill="#aaa599"/></pattern><pattern id="ke_4fc091ac36e4_roof-tex" patternUnits="userSpaceOnUse" width="20" height="40"><rect width="20" height="40" fill="#525e63"/><line x1="10" y1="0" x2="10" y2="40" stroke="#5e4e3e" stroke-width="0.6" opacity="0.3"/></pattern>
    <linearGradient id="ke_4fc091ac36e4_elevation-sky" x2="0" y2="1"><stop stop-color="#c6d5da"/><stop offset=".8" stop-color="#edf0e9"/><stop offset="1" stop-color="#f2ede1"/></linearGradient>
    <linearGradient id="ke_4fc091ac36e4_elevation-glass" x2=".7" y2="1"><stop stop-color="#3e5966"/><stop offset=".43" stop-color="#8ba9b3"/><stop offset=".45" stop-color="#c6d5d6"/><stop offset=".6" stop-color="#728b92"/><stop offset="1" stop-color="#344a53"/></linearGradient>
    <linearGradient id="ke_4fc091ac36e4_elevation-wall-light" x2="1" y2=".15"><stop stop-color="#303b40"/><stop offset=".08" stop-color="#fbf9e9"/><stop offset=".8" stop-color="#fbf9e9"/><stop offset="1" stop-color="#526064"/></linearGradient>
    <linearGradient id="ke_4fc091ac36e4_elevation-timber" x2="1" y2="0"><stop stop-color="#5f4b38"/><stop offset=".45" stop-color="#9c8262"/><stop offset="1" stop-color="#655340"/></linearGradient>
    <linearGradient id="ke_4fc091ac36e4_elevation-panel" x2="0" y2="1"><stop stop-color="#e9e5db"/><stop offset="1" stop-color="#a9aea8"/></linearGradient>
    <filter id="ke_4fc091ac36e4_elevation-wall-shadow" x="-20%" y="-20%" width="140%" height="140%" color-interpolation-filters="sRGB"><feDropShadow dx="3" dy="4" stdDeviation="3" flood-color="#36444a" flood-opacity=".22"/></filter>
    <filter id="ke_4fc091ac36e4_elevation-roof-shadow" x="-20%" y="-20%" width="140%" height="150%" color-interpolation-filters="sRGB"><feDropShadow dx="1" dy="7" stdDeviation="3" flood-color="#2d3739" flood-opacity=".4"/></filter>
    <filter id="ke_4fc091ac36e4_elevation-recess" x="-30%" y="-30%" width="160%" height="160%" color-interpolation-filters="sRGB"><feDropShadow dx="1" dy="2" stdDeviation="1" flood-color="#263638" flood-opacity=".45"/></filter>
    <filter id="ke_4fc091ac36e4_elevation-ground-shadow" x="-30%" y="-200%" width="160%" height="500%"><feGaussianBlur stdDeviation="7"/></filter>
  </defs><g class="elevation-backdrop"><rect width="100%" height="100%" fill="url(#ke_4fc091ac36e4_elevation-sky)"/><rect x="0" y="564" width="916" height="62" fill="#d6d8cc"/><ellipse cx="458" cy="568" rx="393" ry="6" fill="#515f58" opacity=".3" filter="url(#ke_4fc091ac36e4_elevation-ground-shadow)"/></g><text x="80" y="34" font-family="Georgia, serif" font-size="22" fill="#574838">Front Elevation</text><text x="80" y="56" font-family="Arial, sans-serif" font-size="11" letter-spacing="1.8" fill="#7e6d5c">KEYSTONE AI</text><line x1="80" y1="564" x2="836" y2="564" stroke="#574838" stroke-width="2.6"/><g data-elevation-edge="bottom"><rect class="elevation-wall" filter="url(#ke_4fc091ac36e4_elevation-wall-shadow)" data-facade-level="1" x="80" y="384" width="756" height="180" fill="url(#ke_4fc091ac36e4_clad-primary)" stroke="#574838" stroke-width="2"/><rect x="80" y="538" width="756" height="26" fill="url(#ke_4fc091ac36e4_clad-accent)" opacity="0.92"/><rect class="elevation-bay-shading" x="80" y="384" width="252" height="180" fill="url(#ke_4fc091ac36e4_elevation-wall-light)" fill-opacity="0.18" stroke="#5e4e3e" stroke-width="0.9" opacity="0.55"/><rect class="elevation-bay-shading" x="332" y="384" width="126" height="180" fill="url(#ke_4fc091ac36e4_elevation-wall-light)" fill-opacity="0.18" stroke="#5e4e3e" stroke-width="0.9" opacity="0.55"/><rect class="elevation-bay-shading" x="458" y="384" width="90" height="180" fill="url(#ke_4fc091ac36e4_elevation-wall-light)" fill-opacity="0.18" stroke="#5e4e3e" stroke-width="0.9" opacity="0.55"/><rect class="elevation-bay-shading" x="548" y="384" width="144" height="180" fill="url(#ke_4fc091ac36e4_elevation-wall-light)" fill-opacity="0.18" stroke="#5e4e3e" stroke-width="0.9" opacity="0.55"/><rect class="elevation-bay-shading" x="692" y="384" width="144" height="180" fill="url(#ke_4fc091ac36e4_elevation-wall-light)" fill-opacity="0.18" stroke="#5e4e3e" stroke-width="0.9" opacity="0.55"/><rect class="elevation-door" filter="url(#ke_4fc091ac36e4_elevation-recess)" data-opening="entry-door" x="593" y="442.5" width="54" height="121.5" fill="url(#ke_4fc091ac36e4_elevation-timber)" stroke="#574838" stroke-width="1.9"/><circle cx="631.88" cy="510" r="2.1" fill="#f2ddbe"/><line x1="566" y1="426.5" x2="674" y2="426.5" stroke="#574838" stroke-width="2.2"/><line x1="576" y1="426.5" x2="576" y2="564" stroke="#5e4e3e" stroke-width="1.5"/><line x1="664" y1="426.5" x2="664" y2="564" stroke="#5e4e3e" stroke-width="1.5"/><rect class="elevation-door" filter="url(#ke_4fc091ac36e4_elevation-recess)" data-opening="garage-door" x="125" y="438" width="162" height="126" fill="url(#ke_4fc091ac36e4_elevation-panel)" stroke="#574838" stroke-width="2"/><line x1="125" y1="469.5" x2="287" y2="469.5" stroke="#5e4e3e" stroke-width="1.1"/><line x1="125" y1="501" x2="287" y2="501" stroke="#5e4e3e" stroke-width="1.1"/><line x1="125" y1="532.5" x2="287" y2="532.5" stroke="#5e4e3e" stroke-width="1.1"/><line x1="179" y1="438" x2="179" y2="564" stroke="#5e4e3e" stroke-width="0.9" opacity="0.82"/><line x1="233" y1="438" x2="233" y2="564" stroke="#5e4e3e" stroke-width="0.9" opacity="0.82"/><rect class="elevation-wall" filter="url(#ke_4fc091ac36e4_elevation-wall-shadow)" data-facade-level="2" x="80" y="204" width="756" height="180" fill="url(#ke_4fc091ac36e4_clad-primary)" stroke="#574838" stroke-width="2"/><rect class="elevation-bay-shading" x="80" y="204" width="252" height="180" fill="url(#ke_4fc091ac36e4_elevation-wall-light)" fill-opacity="0.18" stroke="#5e4e3e" stroke-width="0.9" opacity="0.55"/><rect class="elevation-bay-shading" x="332" y="204" width="126" height="180" fill="url(#ke_4fc091ac36e4_elevation-wall-light)" fill-opacity="0.18" stroke="#5e4e3e" stroke-width="0.9" opacity="0.55"/><rect class="elevation-bay-shading" x="458" y="204" width="234" height="180" fill="url(#ke_4fc091ac36e4_elevation-wall-light)" fill-opacity="0.18" stroke="#5e4e3e" stroke-width="0.9" opacity="0.55"/><rect class="elevation-bay-shading" x="692" y="204" width="144" height="180" fill="url(#ke_4fc091ac36e4_elevation-wall-light)" fill-opacity="0.18" stroke="#5e4e3e" stroke-width="0.9" opacity="0.55"/><g data-opening="window" data-opening-id="" data-level="2" data-width-ft="4"><rect class="elevation-glazing" filter="url(#ke_4fc091ac36e4_elevation-recess)" x="242" y="235.5" width="34.2" height="108" rx="1.5" fill="url(#ke_4fc091ac36e4_elevation-glass)" stroke="#5e4e3e" stroke-width="1.6"/><rect class="elevation-glazing" filter="url(#ke_4fc091ac36e4_elevation-recess)" x="279.8" y="235.5" width="34.2" height="108" rx="1.5" fill="url(#ke_4fc091ac36e4_elevation-glass)" stroke="#5e4e3e" stroke-width="1.6"/></g><g data-opening="window" data-opening-id="" data-level="2" data-width-ft="4"><rect class="elevation-glazing" filter="url(#ke_4fc091ac36e4_elevation-recess)" x="539" y="235.5" width="34.2" height="94.5" rx="1.5" fill="url(#ke_4fc091ac36e4_elevation-glass)" stroke="#5e4e3e" stroke-width="1.6"/><rect class="elevation-glazing" filter="url(#ke_4fc091ac36e4_elevation-recess)" x="576.8" y="235.5" width="34.2" height="94.5" rx="1.5" fill="url(#ke_4fc091ac36e4_elevation-glass)" stroke="#5e4e3e" stroke-width="1.6"/></g><path class="elevation-roof" filter="url(#ke_4fc091ac36e4_elevation-roof-shadow)" d="M 80 204 L 458 78 L 836 204 Z" fill="url(#ke_4fc091ac36e4_roof-tex)" stroke="#574838" stroke-width="2.2"/><path class="elevation-roof" filter="url(#ke_4fc091ac36e4_elevation-roof-shadow)" d="M 530 210 L 620 130.92000000000002 L 710 210 Z" fill="url(#ke_4fc091ac36e4_roof-tex)" stroke="#574838" stroke-width="2"/><line x1="540" y1="212" x2="540" y2="222" stroke="#574838" stroke-width="1.3"/><line x1="700" y1="212" x2="700" y2="222" stroke="#574838" stroke-width="1.3"/><line x1="92" y1="200" x2="824" y2="200" stroke="#574838" stroke-width="1.4" opacity="0.75"/></g><line x1="80" y1="590" x2="836" y2="590" stroke="#907f6e" stroke-width="1.1"/><line x1="80" y1="584" x2="80" y2="596" stroke="#907f6e" stroke-width="1.1"/><line x1="836" y1="584" x2="836" y2="596" stroke="#907f6e" stroke-width="1.1"/><text x="458" y="584" font-family="Arial, sans-serif" font-size="11" text-anchor="middle" fill="#7e6d5c">42 ft overall</text></svg>